<svg fill="#ffffff" viewBox="0 0 24.00 24.00" xmlns="http://www.w3.org/2000/svg" stroke="#ffffff" stroke-width="0.00024000000000000003" transform="matrix(1, 0, 0, -1, 0, 0)"><g id="SVGRepo_bgCarrier" stroke-width="0"></g><g id="SVGRepo_tracerCarrier" stroke-linecap="round" stroke-linejoin="round" stroke="#000000" stroke-width="0.672"><path d="M20.808,11.079C19.829,16.132,12,20.5,12,20.5s-7.829-4.368-8.808-9.421C2.227,6.1,5.066,3.5,8,3.5a4.444,4.444,0,0,1,4,2,4.444,4.444,0,0,1,4-2C18.934,3.5,21.773,6.1,20.808,11.079Z"></path></g><g id="SVGRepo_iconCarrier"><path d="M20.808,11.079C19.829,16.132,12,20.5,12,20.5s-7.829-4.368-8.808-9.421C2.227,6.1,5.066,3.5,8,3.5a4.444,4.444,0,0,1,4,2,4.444,4.444,0,0,1,4-2C18.934,3.5,21.773,6.1,20.808,11.079Z"></path></g></svg>